<svg width="56" height="56" viewBox="0 0 56 56" fill="none" xmlns="http://www.w3.org/2000/svg">
<g filter="url(#filter0_d_253_358)">
<rect x="4" width="48" height="48" rx="10" fill="#1C1D20" shape-rendering="crispEdges"/>
<path d="M40.7194 23.0526L40.8437 20.4303L38.5525 21.8568L37.842 20.6781L40.2754 19.4822L37.842 18.2864L38.5525 17.0906L40.8437 18.517L40.7194 15.8947H42.1226L41.9982 18.517L44.2895 17.0906L44.9999 18.2864L42.5666 19.4822L44.9999 20.6781L44.2895 21.8568L41.9982 20.4303L42.1226 23.0526H40.7194Z" fill="#FAFAFA"/>
<path d="M35.5506 18.8026V20.3082H29.7896V18.8026H35.5506ZM31.3599 28.4211V17.6842C31.3599 17.0877 31.4999 16.5916 31.7799 16.1959C32.066 15.7944 32.4372 15.4961 32.8937 15.3011C33.3563 15.1004 33.8524 15 34.3819 15C34.7897 15 35.1367 15.0315 35.4227 15.0946C35.7088 15.1577 35.9188 15.2122 36.0527 15.2581L35.578 16.7723C35.4867 16.7436 35.368 16.712 35.2219 16.6776C35.0819 16.6432 34.9054 16.626 34.6923 16.626C34.2115 16.626 33.8646 16.7407 33.6515 16.9701C33.4385 17.1938 33.332 17.5207 33.332 17.9509V28.4211H31.3599Z" fill="#FAFAFA"/>
<path d="M30.1822 18.8026V20.3082H24.4211V18.8026H30.1822ZM25.9915 28.4211V17.6842C25.9915 17.0877 26.1315 16.5916 26.4115 16.1959C26.6975 15.7944 27.0688 15.4961 27.5253 15.3011C27.9879 15.1004 28.484 15 29.0135 15C29.4213 15 29.7683 15.0315 30.0543 15.0946C30.3404 15.1577 30.5504 15.2122 30.6843 15.2581L30.2095 16.7723C30.1182 16.7436 29.9996 16.712 29.8535 16.6776C29.7135 16.6432 29.537 16.626 29.3239 16.626C28.8431 16.626 28.4962 16.7407 28.2831 16.9701C28.0701 17.1938 27.9636 17.5207 27.9636 17.9509V28.4211H25.9915Z" fill="#FAFAFA"/>
<path d="M20.186 28.4211C19.2194 28.4211 18.3824 28.2194 17.6751 27.816C16.9678 27.4127 16.4226 26.8446 16.0395 26.1118C15.6622 25.3733 15.4736 24.5126 15.4736 23.5298C15.4736 22.5527 15.6593 21.6921 16.0306 20.9479C16.4079 20.2037 16.9354 19.6242 17.6132 19.2095C18.2969 18.7891 19.0986 18.5789 20.018 18.5789C20.578 18.5789 21.1203 18.667 21.6448 18.8431C22.1694 19.0192 22.641 19.2976 23.0594 19.6782C23.4779 20.0588 23.808 20.553 24.0497 21.1609C24.2972 21.7688 24.421 22.5016 24.421 23.3594V24.0241H16.5611V22.6351H23.4308L22.5378 23.0952C22.5378 22.5101 22.4435 21.9931 22.2549 21.5444C22.0663 21.0956 21.7834 20.7462 21.4061 20.4962C21.0348 20.2406 20.5721 20.1128 20.018 20.1128C19.464 20.1128 18.9895 20.2406 18.5946 20.4962C18.2056 20.7519 17.9079 21.0899 17.7016 21.5103C17.4953 21.9307 17.3922 22.3908 17.3922 22.8907V23.8366C17.3922 24.4899 17.5101 25.0438 17.7458 25.4982C17.9816 25.9527 18.3087 26.2992 18.7272 26.5378C19.1516 26.7764 19.6438 26.8957 20.2037 26.8957C20.5692 26.8957 20.8992 26.8446 21.1939 26.7424C21.4945 26.6401 21.7539 26.4867 21.972 26.2822C22.1901 26.0777 22.3551 25.8249 22.4671 25.5238L24.2884 25.8561C24.141 26.3674 23.8817 26.8162 23.5104 27.2025C23.139 27.5888 22.6704 27.8899 22.1046 28.1058C21.5446 28.316 20.9051 28.4211 20.186 28.4211Z" fill="#FAFAFA"/>
<path d="M12.529 18.725H14.3437V29.0183C14.3493 29.6636 14.2373 30.2081 14.0077 30.6518C13.778 31.0954 13.442 31.4296 12.9995 31.6543C12.557 31.8848 12.0138 32 11.3697 32H11V30.3838H11.294C11.7309 30.3838 12.0446 30.2657 12.235 30.0295C12.4254 29.7933 12.5234 29.4533 12.529 29.0097V18.725ZM13.428 17.2384C13.1087 17.2384 12.8371 17.129 12.613 16.91C12.389 16.6911 12.277 16.4289 12.277 16.1235C12.277 15.8124 12.389 15.5474 12.613 15.3284C12.8371 15.1095 13.1087 15 13.428 15C13.7416 15 14.0105 15.1095 14.2345 15.3284C14.4641 15.5474 14.5789 15.8124 14.5789 16.1235C14.5789 16.4289 14.4641 16.6911 14.2345 16.91C14.0105 17.129 13.7416 17.2384 13.428 17.2384Z" fill="#FAFAFA"/>
</g>
<defs>
<filter id="filter0_d_253_358" x="0" y="0" width="56" height="56" filterUnits="userSpaceOnUse" color-interpolation-filters="sRGB">
<feFlood flood-opacity="0" result="BackgroundImageFix"/>
<feColorMatrix in="SourceAlpha" type="matrix" values="0 0 0 0 0 0 0 0 0 0 0 0 0 0 0 0 0 0 127 0" result="hardAlpha"/>
<feOffset dy="4"/>
<feGaussianBlur stdDeviation="2"/>
<feComposite in2="hardAlpha" operator="out"/>
<feColorMatrix type="matrix" values="0 0 0 0 0 0 0 0 0 0 0 0 0 0 0 0 0 0 0.25 0"/>
<feBlend mode="normal" in2="BackgroundImageFix" result="effect1_dropShadow_253_358"/>
<feBlend mode="normal" in="SourceGraphic" in2="effect1_dropShadow_253_358" result="shape"/>
</filter>
</defs>
</svg>
